<?xml version="1.0" standalone="no"?><!DOCTYPE svg PUBLIC "-//W3C//DTD SVG 1.1//EN" "http://www.w3.org/Graphics/SVG/1.1/DTD/svg11.dtd"><svg t="1756815651840" class="icon" viewBox="0 0 1024 1024" version="1.1" xmlns="http://www.w3.org/2000/svg" p-id="24244" xmlns:xlink="http://www.w3.org/1999/xlink" width="256" height="256"><path d="M957.632 683.221333a150.613333 150.613333 0 0 1-19.498667 74.112 146.837333 146.837333 0 0 1-53.205333 54.272L594.133333 982.826667a143.210667 143.210667 0 0 1-72.704 19.861333 143.210667 143.210667 0 0 1-72.704-19.861333L158.037333 811.605333a146.837333 146.837333 0 0 1-53.205333-54.250666A150.613333 150.613333 0 0 1 85.333333 683.221333v-342.4c0-26.026667 6.72-51.605333 19.477334-74.154666a146.88 146.88 0 0 1 53.226666-54.272l290.773334-171.2A143.232 143.232 0 0 1 521.514667 21.333333c25.514667 0 50.581333 6.848 72.704 19.861334h-0.064l290.816 171.2a146.837333 146.837333 0 0 1 53.205333 54.293333 150.528 150.528 0 0 1 19.456 74.154667v342.378666z m-210.794667-266.325333a48.490667 48.490667 0 0 0-30.485333-21.546667 47.68 47.68 0 0 0-36.48 6.72l-168.426667 110.506667-167.317333-110.4-4.970667-2.837333a47.573333 47.573333 0 0 0-35.690666-2.965334 48.64 48.64 0 0 0-27.946667 22.869334 50.261333 50.261333 0 0 0-4.885333 36.202666c2.986667 12.245333 10.432 22.869333 20.842666 29.696l193.685334 127.786667 5.504 3.114667a47.637333 47.637333 0 0 0 47.04-3.050667l194.581333-127.786667 4.608-3.328a50.176 50.176 0 0 0 9.941333-64.938666v-0.042667z" fill="#333333" p-id="24245"></path></svg>
